<?xml version="1.0" encoding="utf-8"?>
<!-- Generator: Adobe Illustrator 24.3.0, SVG Export Plug-In . SVG Version: 6.00 Build 0)  -->
<svg version="1.1" id="图层_1" xmlns="http://www.w3.org/2000/svg" xmlns:xlink="http://www.w3.org/1999/xlink" x="0px" y="0px"
	 viewBox="0 0 800 800" style="enable-background:new 0 0 800 800;" xml:space="preserve">
<style type="text/css">
	.st0{fill:#FF7900;}
</style>
<g id="组_9361_1_" transform="translate(-21496.234 -16251)">
	<path id="联合_43_1_" class="st0" d="M21847.92,16994.3l-170.11-165.25l-0.16-0.17c141.21,60.34,300.99,60.12,442.05-0.59
		l-165.25,165.26c-29.35,29.3-76.79,29.63-106.55,0.75H21847.92z M21624.26,16757.6c-20.85-37.64-33.55-79.24-37.29-122.1
		c187.75,129.05,435.65,129.05,623.4,0c-3.68,42.62-16.12,84.04-36.59,121.61c-167.84,105.89-381.54,106.05-549.55,0.44
		L21624.26,16757.6z M21745.5,16671.49v-31.03c-0.1-7.99,0.43-15.99,1.61-23.9c5.7-35.22,23.65-67.31,50.71-90.57
		c55.96-47.52,137.44-49.65,195.81-5.12c30.25,23.46,50.47,57.5,56.62,95.27c1.19,8.1,1.73,16.28,1.61,24.46v33.95
		c-100.19,29.18-206.78,28.11-306.36-3.07V16671.49z M22089.42,16640.62c0.14-10.17-0.56-20.34-2.1-30.39
		c-7.64-47-32.79-89.38-70.41-118.59c-83.27-65.21-203.65-50.57-268.84,32.7c-19.7,25.15-32.79,54.83-38.08,86.33
		c-1.48,9.86-2.16,19.83-2.04,29.8v17.4c-42.09-16.98-81.38-40.24-116.51-68.97c5.37-81.56,42.81-157.68,104.16-211.71
		c116.37-102.08,289.54-104.88,409.14-6.62c65.72,54.23,105.98,133.29,111.22,218.33c-37.97,30.97-80.7,55.62-126.53,72.96V16640.62
		z"/>
</g>
</svg>
